<svg width="157" height="74" viewBox="0 0 157 74" fill="none" xmlns="http://www.w3.org/2000/svg">
<path d="M19.2614 58C32.5568 58 40.6108 49.7756 40.6108 36.1392C40.6108 22.5455 32.5568 14.3636 19.3892 14.3636H3.79261V58H19.2614ZM13.0185 50.0952V22.2685H18.8991C27.081 22.2685 31.4062 26.4446 31.4062 36.1392C31.4062 45.8764 27.081 50.0952 18.8778 50.0952H13.0185Z" fill="#150485"/>
<path d="M64.5381 15.2066L45.8949 15.1001C36.0939 15.0442 30.8446 20.1279 30.805 27.0738C30.7681 33.5297 35.3693 37.4552 40.3324 37.7179L40.33 38.144C35.7859 39.1408 32.4224 42.339 32.3931 47.4738C32.3557 54.0149 37.1871 58.6875 46.8176 58.7425L64.2889 58.8422L64.5381 15.2066ZM55.2693 22.6964L55.2031 34.2871L47.4689 34.2429C43.0371 34.2176 40.3032 31.6452 40.3237 28.0444C40.3425 24.7632 42.5919 22.624 47.7481 22.6534L55.2693 22.6964ZM55.1675 40.5299L55.1058 51.3323L48.0959 51.2923C44.0051 51.2689 41.6947 49.1463 41.7127 45.9929C41.7325 42.5413 44.5568 40.4693 48.3281 40.4908L55.1675 40.5299Z" fill="#150485"/>
<path d="M89.3068 33C93.7386 33 96.3026 30.2514 96.3026 25.706C96.3026 21.1818 93.7386 18.4545 89.456 18.4545H84.598V33H89.3068ZM86.7926 31.0824V20.3722H89.321C92.5028 20.3722 94.1435 22.2756 94.1435 25.706C94.1435 29.1506 92.5028 31.0824 89.1861 31.0824H86.7926ZM102.036 33.2415C103.84 33.2415 104.855 32.3253 105.26 31.5085H105.346V33H107.419V25.7557C107.419 22.581 104.919 21.9489 103.186 21.9489C101.212 21.9489 99.3938 22.7443 98.6836 24.733L100.679 25.1875C100.992 24.4134 101.787 23.6676 103.215 23.6676C104.586 23.6676 105.289 24.3849 105.289 25.6207V25.6705C105.289 26.4446 104.493 26.4304 102.533 26.6577C100.466 26.8991 98.3498 27.4389 98.3498 29.9176C98.3498 32.0625 99.962 33.2415 102.036 33.2415ZM102.498 31.5369C101.297 31.5369 100.431 30.9972 100.431 29.946C100.431 28.8097 101.439 28.4048 102.668 28.2415C103.357 28.1491 104.99 27.9645 105.296 27.6591V29.0653C105.296 30.358 104.266 31.5369 102.498 31.5369ZM112.371 26.5227C112.371 24.7827 113.437 23.7884 114.914 23.7884C116.356 23.7884 117.229 24.733 117.229 26.3168V33H119.353V26.0611C119.353 23.3622 117.869 21.9489 115.638 21.9489C113.998 21.9489 112.925 22.7088 112.421 23.8665H112.286V22.0909H110.248V33H112.371V26.5227ZM125.376 33.2415C127.18 33.2415 128.195 32.3253 128.6 31.5085H128.685V33H130.759V25.7557C130.759 22.581 128.259 21.9489 126.526 21.9489C124.552 21.9489 122.734 22.7443 122.023 24.733L124.019 25.1875C124.332 24.4134 125.127 23.6676 126.555 23.6676C127.925 23.6676 128.629 24.3849 128.629 25.6207V25.6705C128.629 26.4446 127.833 26.4304 125.873 26.6577C123.806 26.8991 121.69 27.4389 121.69 29.9176C121.69 32.0625 123.302 33.2415 125.376 33.2415ZM125.837 31.5369C124.637 31.5369 123.771 30.9972 123.771 29.946C123.771 28.8097 124.779 28.4048 126.008 28.2415C126.697 28.1491 128.33 27.9645 128.636 27.6591V29.0653C128.636 30.358 127.606 31.5369 125.837 31.5369ZM135.711 26.5227C135.711 24.7827 136.777 23.7884 138.254 23.7884C139.696 23.7884 140.569 24.733 140.569 26.3168V33H142.693V26.0611C142.693 23.3622 141.208 21.9489 138.978 21.9489C137.338 21.9489 136.265 22.7088 135.761 23.8665H135.626V22.0909H133.588V33H135.711V26.5227ZM150.115 37.3182C152.892 37.3182 155.037 36.0469 155.037 33.2415V22.0909H152.956V23.8594H152.799C152.423 23.1847 151.67 21.9489 149.639 21.9489C147.004 21.9489 145.065 24.0298 145.065 27.5028C145.065 30.983 147.047 32.8366 149.625 32.8366C151.627 32.8366 152.402 31.7074 152.785 31.0114H152.92V33.1562C152.92 34.8679 151.748 35.6065 150.136 35.6065C148.368 35.6065 147.679 34.7188 147.302 34.0938L145.477 34.8466C146.052 36.1818 147.508 37.3182 150.115 37.3182ZM150.093 31.0753C148.197 31.0753 147.21 29.6193 147.21 27.4744C147.21 25.3793 148.176 23.7528 150.093 23.7528C151.947 23.7528 152.941 25.2656 152.941 27.4744C152.941 29.7259 151.926 31.0753 150.093 31.0753Z" fill="#590995"/>
<path d="M84.598 56H90.1733C93.554 56 95.081 54.3168 95.081 52.0866C95.081 49.8352 93.5043 48.5639 92.0625 48.4858V48.3438C93.3977 48.0028 94.5128 47.0938 94.5128 45.2756C94.5128 43.1236 93.0213 41.4545 89.9247 41.4545H84.598V56ZM86.7926 54.1179V49.4588H90.0384C91.7997 49.4588 92.9006 50.5952 92.9006 51.9801C92.9006 53.2017 92.0696 54.1179 89.9602 54.1179H86.7926ZM86.7926 47.7472V43.3224H89.7898C91.5298 43.3224 92.3608 44.2386 92.3608 45.446C92.3608 46.8523 91.2102 47.7472 89.733 47.7472H86.7926ZM100.688 56.2415C102.492 56.2415 103.508 55.3253 103.913 54.5085H103.998V56H106.072V48.7557C106.072 45.581 103.572 44.9489 101.839 44.9489C99.8643 44.9489 98.0462 45.7443 97.3359 47.733L99.3317 48.1875C99.6442 47.4134 100.44 46.6676 101.867 46.6676C103.238 46.6676 103.941 47.3849 103.941 48.6207V48.6705C103.941 49.4446 103.146 49.4304 101.185 49.6577C99.1186 49.8991 97.0021 50.4389 97.0021 52.9176C97.0021 55.0625 98.6143 56.2415 100.688 56.2415ZM101.15 54.5369C99.9496 54.5369 99.0831 53.9972 99.0831 52.946C99.0831 51.8097 100.092 51.4048 101.32 51.2415C102.009 51.1491 103.643 50.9645 103.948 50.6591V52.0653C103.948 53.358 102.918 54.5369 101.15 54.5369ZM111.024 49.5227C111.024 47.7827 112.125 46.7884 113.637 46.7884C115.1 46.7884 115.974 47.7188 115.974 49.3168V56H118.098V49.0611C118.098 46.3409 116.606 44.9489 114.362 44.9489C112.664 44.9489 111.642 45.6875 111.13 46.8665H110.995V41.4545H108.9V56H111.024V49.5227ZM124.106 56.2415C125.91 56.2415 126.926 55.3253 127.331 54.5085H127.416V56H129.49V48.7557C129.49 45.581 126.99 44.9489 125.257 44.9489C123.282 44.9489 121.464 45.7443 120.754 47.733L122.75 48.1875C123.062 47.4134 123.858 46.6676 125.285 46.6676C126.656 46.6676 127.359 47.3849 127.359 48.6207V48.6705C127.359 49.4446 126.564 49.4304 124.603 49.6577C122.537 49.8991 120.42 50.4389 120.42 52.9176C120.42 55.0625 122.032 56.2415 124.106 56.2415ZM124.568 54.5369C123.368 54.5369 122.501 53.9972 122.501 52.946C122.501 51.8097 123.51 51.4048 124.738 51.2415C125.427 51.1491 127.061 50.9645 127.366 50.6591V52.0653C127.366 53.358 126.336 54.5369 124.568 54.5369ZM132.318 56H134.442V49.3381C134.442 47.9105 135.543 46.8807 137.048 46.8807C137.489 46.8807 137.986 46.9588 138.156 47.0085V44.9773C137.943 44.9489 137.524 44.9276 137.254 44.9276C135.976 44.9276 134.882 45.652 134.484 46.8239H134.371V45.0909H132.318V56ZM139.994 56H142.118V45.0909H139.994V56ZM141.066 43.4077C141.798 43.4077 142.409 42.8395 142.409 42.1435C142.409 41.4474 141.798 40.8722 141.066 40.8722C140.328 40.8722 139.724 41.4474 139.724 42.1435C139.724 42.8395 140.328 43.4077 141.066 43.4077Z" fill="#590995"/>
</svg>
